<?xml version="1.0" encoding="UTF-8" standalone="no"?>
<svg
   viewBox="0 0 16 16"
   version="1.1"
   id="svg1"
   sodipodi:docname="volume-high-sharp-solid.svg"
   inkscape:version="1.3.2 (091e20e, 2023-11-25, custom)"
   width="16"
   height="16"
   xmlns:inkscape="http://www.inkscape.org/namespaces/inkscape"
   xmlns:sodipodi="http://sodipodi.sourceforge.net/DTD/sodipodi-0.dtd"
   xmlns="http://www.w3.org/2000/svg"
   xmlns:svg="http://www.w3.org/2000/svg">
  <defs
     id="defs1" />
  <sodipodi:namedview
     id="namedview1"
     pagecolor="#505050"
     bordercolor="#eeeeee"
     borderopacity="1"
     inkscape:showpageshadow="0"
     inkscape:pageopacity="0"
     inkscape:pagecheckerboard="0"
     inkscape:deskcolor="#505050"
     inkscape:zoom="18.328125"
     inkscape:cx="14.676897"
     inkscape:cy="15.386189"
     inkscape:window-width="3440"
     inkscape:window-height="1369"
     inkscape:window-x="-8"
     inkscape:window-y="-8"
     inkscape:window-maximized="1"
     inkscape:current-layer="svg1" />
  <!--!Font Awesome Pro 6.7.2 by @fontawesome - https://fontawesome.com License - https://fontawesome.com/license (Commercial License) Copyright 2025 Fonticons, Inc.-->
  <path
     d="m 14.8,8 c 0,1.9625 -0.9425,3.705 -2.4,4.8 l 0.72,0.96 C 14.8675,12.4475 16,10.3575 16,8.0025 V 8 7.9975 C 16,5.6425 14.8675,3.5525 13.12,2.24 L 12.4,3.2 c 1.4575,1.095 2.4,2.8375 2.4,4.8 z m -3.84,2.88 0.72,0.96 C 12.845,10.965 13.6,9.57 13.6,8 13.6,6.43 12.845,5.035 11.68,4.16 l -0.72,0.96 c 0.875,0.6575 1.44,1.7025 1.44,2.88 0,1.1775 -0.565,2.2225 -1.44,2.88 z M 10,8 C 10,8.3925 9.8125,8.74 9.52,8.96 l 0.72,0.96 C 10.8225,9.4825 11.2,8.785 11.2,8 11.2,7.215 10.8225,6.5175 10.24,6.08 L 9.52,7.04 C 9.8125,7.26 10,7.6075 10,8 Z M 0,5.6 v 4.8 h 3.2 l 3.6,3.2 H 8 V 2.4 H 6.8 L 3.2,5.6 Z"
     id="path1"
     style="fill:#ffffff;fill-opacity:1;stroke-width:0.025" />
</svg>
